<svg id="Layer_1" data-name="Layer 1" xmlns="http://www.w3.org/2000/svg" viewBox="0 0 122.88 122.88"><title>person-profile-image</title><path d="M61.44,0A61.46,61.46,0,1,1,18,18,61.21,61.21,0,0,1,61.44,0ZM49.28,71.35c.26-2.18-6.23-10.54-7.41-14.54-2.54-4-3.44-10.46-.68-14.73,1.11-1.69.63-3.16.63-5.51,0-23.24,40.7-23.24,40.7,0,0,2.94-.67,3.63.92,6,2.66,3.86,1.29,10.72-1,14.3C81,61,74.24,69,74.71,71.37c.42,11.92-25.5,11.53-25.43,0v0Zm-31,20.07c3.25-3.6,9.09-3.76,16.17-7.36a74.7,74.7,0,0,0,7.75-4.53c8.22,10.08,15,21.16,12.78,34.05a52.65,52.65,0,0,0,6.44.4c.55,0,1.09,0,1.64,0-.5-15.14,8.38-26.21,17.79-35.63A68.55,68.55,0,0,0,96.33,86c4.62,1.54,7.39,2.53,9,4.3a52.54,52.54,0,1,0-87,1.08Z"/></svg>